<?xml version="1.0" encoding="UTF-8" standalone="no"?>
<!-- Created with Inkscape (http://www.inkscape.org/) -->

<svg
   version="1.1"
   id="svg105"
   xml:space="preserve"
   width="32"
   height="32"
   viewBox="0 0 32 32"
   xmlns="http://www.w3.org/2000/svg"
   xmlns:svg="http://www.w3.org/2000/svg"><defs
     id="defs109"><clipPath
       clipPathUnits="userSpaceOnUse"
       id="clipPath119"><path
         d="M 0,24 H 24 V 0 H 0 Z"
         id="path117" /></clipPath></defs><g
     id="g111"
     transform="matrix(1.3333333,0,0,-1.3333333,0,32)"><g
       id="g113"><g
         id="g115"
         clip-path="url(#clipPath119)"><g
           id="g121"
           transform="translate(1,12)"><path
             d="M 0,0 C 0,6.075 4.925,11 11,11 17.075,11 22,6.075 22,0 22,-6.075 17.075,-11 11,-11 4.925,-11 0,-6.075 0,0 Z"
             style="fill:none;stroke:#000000;stroke-width:2;stroke-linecap:round;stroke-linejoin:round;stroke-miterlimit:10;stroke-dasharray:none;stroke-opacity:1"
             id="path123" /></g><g
           id="g125"
           transform="translate(17,9)"><path
             d="m 0,0 c 0,0 -2.238,-2 -5,-2 -2.761,0 -5,2 -5,2"
             style="fill:none;stroke:#000000;stroke-width:2;stroke-linecap:round;stroke-linejoin:round;stroke-miterlimit:10;stroke-dasharray:none;stroke-opacity:1"
             id="path127" /></g><g
           id="g129"
           transform="translate(14,14)"><path
             d="M 0,0 C 0,-1 0.896,-1 2,-1 3.104,-1 4,-1 4,0 4,1.104 3.104,2 2,2 0.896,2 0,1.104 0,0"
             style="fill:#000000;fill-opacity:1;fill-rule:nonzero;stroke:none"
             id="path131" /></g><g
           id="g133"
           transform="translate(10,14)"><path
             d="M 0,0 H -3"
             style="fill:none;stroke:#000000;stroke-width:2;stroke-linecap:round;stroke-linejoin:round;stroke-miterlimit:10;stroke-dasharray:none;stroke-opacity:1"
             id="path135" /></g></g></g></g></svg>
